#!OML:ASF G:\JayActor3\Patient Classification 1\Patient 1\Session 6\male.ASF
:FULLY-SPECIFIED
:DEGREES
542
root 41.775 15.5108 -19.14 15.9684 -63.6804 -16.8953
lowerback 7.3055 -1.45909 7.45861
upperback 8.6166 -2.02656 1.77002
thorax 4.77161 -0.785194 -2.2632
lowerneck 2.75949 1.49015 6.23959
upperneck 2.93989 2.15428 -3.13888
head 0.557054 1.11785 -2.05819
rclavicle -2.29099e-014 1.89839e-014
rhumerus -20.8713 16.1768 -91.6161
rradius 66.8736
rwrist 2.72698
rhand -18.7346 -9.98325
rfingers 7.12502
rthumb 7.56131 -39.8281
lclavicle -2.29099e-014 1.89839e-014
lhumerus -32.193 -15.3337 87.622
lradius 57.351
lwrist 13.4392
lhand -25.5284 16.8118
lfingers 7.12502
lthumb 1.00126 46.7892
rfemur -17.2243 4.60816 36.8606
rtibia 41.8721
rfoot -25.137 -13.0315
rtoes 1.69616
lfemur -42.1787 3.90216 -8.12597
ltibia 77.3186
lfoot -3.76601 -0.692923
ltoes -9.95385
543
root 41.6908 15.4999 -19.0926 15.9368 -63.7203 -16.9935
lowerback 7.46231 -1.39183 7.56985
upperback 8.65097 -1.92279 1.75579
thorax 4.72988 -0.728987 -2.33998
lowerneck 2.82125 1.43283 6.11692
upperneck 2.96116 2.07673 -3.03735
head 0.546404 1.07854 -2.00296
rclavicle 7.65321e-015 -2.5842e-014
rhumerus -20.7345 16.3132 -91.6554
rradius 66.8802
rwrist 2.84212
rhand -18.8907 -9.93386
rfingers 7.12502
rthumb 7.41064 -39.7841
lclavicle 7.65321e-015 -2.5842e-014
lhumerus -32.3138 -15.7052 87.4591
lradius 58.424
lwrist 13.747
lhand -24.8765 17.1954
lfingers 7.12502
lthumb 1.63084 47.1689
rfemur -16.7246 4.55696 36.9311
rtibia 41.9275
rfoot -25.4637 -13.0158
rtoes 1.53607
lfemur -43.0279 3.7664 -8.2465
ltibia 76.0578
lfoot -4.08335 -0.305291
ltoes -9.96251
544
root 41.6055 15.4913 -19.045 15.9109 -63.7936 -17.0761
lowerback 7.59024 -1.3153 7.6538
upperback 8.68329 -1.80975 1.73876
thorax 4.70359 -0.668873 -2.40599
lowerneck 2.8729 1.38293 5.95303
upperneck 2.9853 2.0068 -2.90436
head 0.538056 1.04264 -1.93
rclavicle 2.78299e-014 -2.38542e-015
rhumerus -20.6171 16.456 -91.6987
rradius 66.8771
rwrist 2.94314
rhand -19.0851 -9.88518
rfingers 7.12502
rthumb 7.22296 -39.7419
lclavicle 2.78299e-014 -2.38542e-015
lhumerus -32.4179 -16.051 87.2956
lradius 59.4712
lwrist 14.0185
lhand -24.2176 17.5039
lfingers 7.12502
lthumb 2.26724 47.4716
rfemur -16.2187 4.54999 36.9848
rtibia 41.9453
rfoot -25.7565 -13.0233
rtoes 1.32439
lfemur -43.7858 3.74069 -8.41774
ltibia 74.6521
lfoot -4.30237 0.0107892
ltoes -10.0489
545
root 41.5197 15.4849 -18.9972 15.9028 -63.8982 -17.1531
lowerback 7.70107 -1.23301 7.73135
upperback 8.70725 -1.68922 1.70887
thorax 4.6786 -0.604739 -2.48283
lowerneck 2.99146 1.32669 5.90756
upperneck 2.93784 1.93638 -2.8534
head 0.49855 1.00724 -1.90606
rclavicle 1.56543e-014 3.98563e-014
rhumerus -20.5225 16.5982 -91.7639
rradius 66.8615
rwrist 3.03315
rhand -19.3119 -9.83237
rfingers 7.12502
rthumb 7.00409 -39.6965
lclavicle 1.56543e-014 3.98563e-014
lhumerus -32.5031 -16.3783 87.1191
lradius 60.4892
lwrist 14.2172
lhand -23.5654 17.7887
lfingers 7.12502
lthumb 2.89708 47.7488
rfemur -15.7151 4.58452 37.0259
rtibia 41.932
rfoot -26.0075 -13.0517
rtoes 1.07686
lfemur -44.457 3.81955 -8.63817
ltibia 73.109
lfoot -4.41214 0.223536
ltoes -10.2784
546
root 41.433 15.4801 -18.9491 15.909 -64.0159 -17.2324
lowerback 7.78819 -1.1475 7.80457
upperback 8.73404 -1.56684 1.67486
thorax 4.67052 -0.539051 -2.56246
lowerneck 3.09775 1.27497 5.83782
upperneck 2.88817 1.87024 -2.77819
head 0.460224 0.97368 -1.86972
rclavicle -1.5207e-014 -1.43125e-014
rhumerus -20.4375 16.7375 -91.8356
rradius 66.8324
rwrist 3.1141
rhand -19.5843 -9.77685
rfingers 7.12502
rthumb 6.74114 -39.6495
lclavicle -1.5207e-014 -1.43125e-014
lhumerus -32.5592 -16.6908 86.9389
lradius 61.4899
lwrist 14.328
lhand -22.9284 18.1106
lfingers 7.12502
lthumb 3.51225 48.0614
rfemur -15.2063 4.64876 37.0653
rtibia 41.8927
rfoot -26.2232 -13.0969
rtoes 0.793014
lfemur -45.0345 3.97379 -8.89844
ltibia 71.4375
lfoot -4.41214 0.311209
ltoes -10.7162
547
root 41.3453 15.477 -18.9006 15.9127 -64.1248 -17.3063
lowerback 7.86808 -1.06933 7.87805
upperback 8.76028 -1.45459 1.63855
thorax 4.66531 -0.478163 -2.64456
lowerneck 3.24178 1.22169 5.82824
upperneck 2.78916 1.80655 -2.74805
head 0.401488 0.941618 -1.85935
rclavicle 1.51573e-014 -2.21645e-014
rhumerus -20.3734 16.8765 -91.9182
rradius 66.7926
rwrist 3.19099
rhand -19.8915 -9.71876
rfingers 7.12502
rthumb 6.44453 -39.6007
lclavicle 1.51573e-014 -2.21645e-014
lhumerus -32.6009 -16.9771 86.7521
lradius 62.4756
lwrist 14.3491
lhand -22.297 18.4291
lfingers 7.12502
lthumb 4.12195 48.369
rfemur -14.6832 4.71849 37.106
rtibia 41.827
rfoot -26.3976 -13.166
rtoes 0.509024
lfemur -45.5121 4.16776 -9.19357
ltibia 69.6512
lfoot -4.30923 0.264616
ltoes -11.2702
548
root 41.2568 15.4752 -18.8515 15.9281 -64.2245 -17.3882
lowerback 7.9205 -0.992764 7.95219
upperback 8.79718 -1.34837 1.60713
thorax 4.68695 -0.41932 -2.72237
lowerneck 3.37492 1.16784 5.78473
upperneck 2.67803 1.74034 -2.69714
head 0.340236 0.907841 -1.83602
rclavicle -2.5345e-015 -2.90226e-014
rhumerus -20.3081 17.0069 -91.9935
rradius 66.741
rwrist 3.26216
rhand -20.2266 -9.65509
rfingers 7.12502
rthumb 6.12109 -39.5467
lclavicle -2.5345e-015 -2.90226e-014
lhumerus -32.6005 -17.2421 86.5643
lradius 63.4355
lwrist 14.3093
lhand -21.6846 18.7384
lfingers 7.12502
lthumb 4.71337 48.6659
rfemur -14.1503 4.79524 37.1537
rtibia 41.7383
rfoot -26.536 -13.24
rtoes 0.221442
lfemur -45.8951 4.39364 -9.5177
ltibia 67.7667
lfoot -4.10245 0.101076
ltoes -11.8889
549
root 41.167 15.4749 -18.8021 15.9305 -64.2793 -17.4645
lowerback 7.96651 -0.932957 8.03946
upperback 8.8382 -1.26485 1.57772
thorax 4.71479 -0.370839 -2.80459
lowerneck 3.47564 1.12169 5.68578
upperneck 2.58884 1.68013 -2.596
head 0.290767 0.876562 -1.78612
rclavicle -5.82439e-014 -6.26172e-015
rhumerus -20.2573 17.1246 -92.074
rradius 66.6814
rwrist 3.32092
rhand -20.5906 -9.58579
rfingers 7.12502
rthumb 5.76962 -39.4872
lclavicle -5.82439e-014 -6.26172e-015
lhumerus -32.5702 -17.4874 86.3697
lradius 64.3685
lwrist 14.2458
lhand -21.0934 19.0397
lfingers 7.12502
lthumb 5.2842 48.9539
rfemur -13.5992 4.84272 37.2156
rtibia 41.6289
rfoot -26.6444 -13.3302
rtoes -0.0853527
lfemur -46.1816 4.61491 -9.86318
ltibia 65.8038
lfoot -3.78184 -0.158627
ltoes -12.4637
550
root 41.0767 15.4761 -18.7521 15.9614 -64.3224 -17.5598
lowerback 7.9871 -0.870948 8.14641
upperback 8.88178 -1.18018 1.54676
thorax 4.76027 -0.31979 -2.89983
lowerneck 3.55435 1.07451 5.55598
upperneck 2.51102 1.61589 -2.46013
head 0.248078 0.842944 -1.71928
rclavicle -1.37658e-014 -1.49089e-015
rhumerus -20.2178 17.2084 -92.1601
rradius 66.6057
rwrist 3.41164
rhand -21.0086 -9.5027
rfingers 7.12502
rthumb 5.366 -39.4148
lclavicle -1.37658e-014 -1.49089e-015
lhumerus -32.4952 -17.7338 86.1709
lradius 65.2574
lwrist 14.1754
lhand -20.5414 19.3448
lfingers 7.12502
lthumb 5.81711 49.245
rfemur -13.0546 4.88559 37.2898
rtibia 41.5067
rfoot -26.7076 -13.4385
rtoes -0.436835
lfemur -46.3926 4.85646 -10.2274
ltibia 63.7828
lfoot -3.3261 -0.463951
ltoes -12.843
551
root 40.9861 15.4782 -18.7016 16.0217 -64.3557 -17.672
lowerback 7.98256 -0.810024 8.25463
upperback 8.92426 -1.09948 1.52309
thorax 4.81875 -0.270263 -2.98828
lowerneck 3.62649 1.0305 5.40632
upperneck 2.44617 1.55456 -2.31014
head 0.210696 0.810625 -1.64443
rclavicle -6.75868e-015 1.11319e-014
rhumerus -20.1915 17.2841 -92.2444
rradius 66.5137
rwrist 3.52577
rhand -21.4725 -9.41772
rfingers 7.12502
rthumb 4.91817 -39.3406
lclavicle -6.75868e-015 1.11319e-014
lhumerus -32.3951 -17.9605 85.9746
lradius 66.1262
lwrist 14.1247
lhand -20.0142 19.6549
lfingers 7.12502
lthumb 6.32609 49.5404
rfemur -12.5251 4.90502 37.3717
rtibia 41.3761
rfoot -26.7187 -13.5597
rtoes -0.85195
lfemur -46.5386 5.12199 -10.6142
ltibia 61.7207
lfoot -2.71492 -0.76277
ltoes -13.0828
